<svg width="325" height="95" viewBox="0 0 325 95" fill="none" xmlns="http://www.w3.org/2000/svg">
<path d="M73.672 94.12L49.224 52.776H62.664L87.112 94.12H73.672ZM0.84 45.48C0.84 38.9947 1.94933 33.0213 4.168 27.56C6.472 22.0987 9.672 17.3627 13.768 13.352C17.864 9.34133 22.6427 6.22666 28.104 4.008C33.6507 1.78933 39.6667 0.679993 46.152 0.679993C52.552 0.679993 58.4827 1.78933 63.944 4.008C69.4053 6.22666 74.1413 9.34133 78.152 13.352C82.248 17.3627 85.4053 22.0987 87.624 27.56C89.928 33.0213 91.08 38.9947 91.08 45.48C91.08 51.88 89.928 57.8107 87.624 63.272C85.4053 68.7333 82.248 73.512 78.152 77.608C74.1413 81.6187 69.4053 84.7333 63.944 86.952C58.4827 89.1707 52.552 90.28 46.152 90.28C39.6667 90.28 33.6507 89.1707 28.104 86.952C22.6427 84.7333 17.864 81.6187 13.768 77.608C9.672 73.512 6.472 68.7333 4.168 63.272C1.94933 57.8107 0.84 51.88 0.84 45.48ZM13.896 45.48C13.896 51.7093 15.304 57.2987 18.12 62.248C20.936 67.112 24.776 70.952 29.64 73.768C34.504 76.584 40.008 77.992 46.152 77.992C52.296 77.992 57.7573 76.584 62.536 73.768C67.3147 70.952 71.0693 67.112 73.8 62.248C76.616 57.2987 78.024 51.7093 78.024 45.48C78.024 39.1653 76.616 33.576 73.8 28.712C71.0693 23.848 67.3147 20.008 62.536 17.192C57.7573 14.376 52.296 12.968 46.152 12.968C40.008 12.968 34.504 14.376 29.64 17.192C24.776 20.008 20.936 23.848 18.12 28.712C15.304 33.576 13.896 39.1653 13.896 45.48ZM120.219 90.28C115.526 90.28 111.814 89.5547 109.083 88.104C106.352 86.568 104.347 84.5627 103.067 82.088C101.787 79.528 100.934 76.6693 100.507 73.512C100.166 70.3547 99.995 67.112 99.995 63.784V26.536H112.795V66.472C112.795 70.9093 113.776 73.896 115.739 75.432C117.787 76.968 120.176 77.736 122.907 77.736C125.723 77.736 128.496 77.1813 131.227 76.072C134.043 74.9627 136.56 73.4693 138.779 71.592C141.083 69.6293 142.79 67.5387 143.899 65.32V72.488H141.851V26.536H154.651V89H144.923L142.235 77.992L145.435 77.608C143.216 80.2533 140.742 82.5573 138.011 84.52C135.28 86.3973 132.422 87.848 129.435 88.872C126.448 89.8107 123.376 90.28 120.219 90.28ZM178.175 26.536L181.247 43.432V89H168.447V26.536H178.175ZM179.327 48.68L176.255 47.272V37.928L177.407 36.52C178.26 34.984 179.583 33.3627 181.375 31.656C183.252 29.864 185.428 28.3707 187.903 27.176C190.378 25.896 192.895 25.256 195.455 25.256C196.735 25.256 197.93 25.3413 199.039 25.512C200.234 25.6827 201.13 25.9813 201.727 26.408V37.928H197.759C191.956 37.928 187.732 38.824 185.087 40.616C182.442 42.3227 180.522 45.0107 179.327 48.68ZM225.593 90.792C220.729 90.792 216.548 89.9387 213.049 88.232C209.55 86.5253 206.862 84.0933 204.985 80.936C203.193 77.6933 202.297 73.8533 202.297 69.416C202.297 65.32 203.236 61.6933 205.113 58.536C206.99 55.2933 209.678 52.7333 213.177 50.856C216.676 48.9787 220.814 48.04 225.593 48.04C231.566 48.04 236.345 49.4053 239.929 52.136C243.598 54.7813 246.158 58.4507 247.609 63.144H240.441V47.144C240.441 44.4987 239.545 42.0667 237.753 39.848C235.961 37.6293 232.804 36.52 228.281 36.52C225.892 36.52 223.246 36.8187 220.345 37.416C217.529 37.928 214.585 38.8667 211.513 40.232L207.673 30.376C211.172 28.6693 214.798 27.3893 218.553 26.536C222.308 25.6827 225.977 25.256 229.561 25.256C234.937 25.256 239.374 26.2373 242.873 28.2C246.372 30.1627 248.974 32.808 250.681 36.136C252.388 39.3787 253.241 43.048 253.241 47.144V89H244.025L240.825 77.608L247.609 75.688C246.073 80.7227 243.342 84.52 239.417 87.08C235.492 89.5547 230.884 90.792 225.593 90.792ZM227.897 79.4C231.652 79.4 234.681 78.5467 236.985 76.84C239.289 75.048 240.441 72.5733 240.441 69.416C240.441 66.1733 239.289 63.6987 236.985 61.992C234.681 60.2853 231.652 59.432 227.897 59.432C224.142 59.432 221.113 60.2853 218.809 61.992C216.505 63.6987 215.353 66.1733 215.353 69.416C215.353 72.5733 216.505 75.048 218.809 76.84C221.113 78.5467 224.142 79.4 227.897 79.4ZM293.329 90.28C287.27 90.28 281.937 88.9573 277.329 86.312C272.721 83.5813 269.137 79.784 266.577 74.92C264.017 70.056 262.737 64.3813 262.737 57.896C262.737 51.3253 264.017 45.608 266.577 40.744C269.137 35.88 272.721 32.0827 277.329 29.352C281.937 26.6213 287.27 25.256 293.329 25.256C299.473 25.256 304.849 26.6213 309.457 29.352C314.065 32.0827 317.649 35.88 320.209 40.744C322.769 45.608 324.049 51.3253 324.049 57.896C324.049 58.4933 324.006 59.1333 323.921 59.816C323.921 60.4133 323.878 60.968 323.793 61.48H274.897V50.472H314.577L310.993 57.896C310.993 51.4107 309.542 46.0773 306.641 41.896C303.74 37.7147 299.302 35.624 293.329 35.624C288.038 35.624 283.814 37.3307 280.657 40.744C277.5 44.072 275.921 48.4667 275.921 53.928V60.584C275.921 66.3013 277.457 70.8667 280.529 74.28C283.601 77.608 287.868 79.272 293.329 79.272C298.364 79.272 302.246 78.2053 304.977 76.072C307.708 73.9387 310.097 71.2933 312.145 68.136L321.745 74.152C318.844 79.528 315.089 83.5813 310.481 86.312C305.958 88.9573 300.241 90.28 293.329 90.28Z" fill="white"/>
</svg>
